<mxfile host="65bd71144e">
    <diagram id="aLMiUS9B4QZz4JKcze_e" name="Page-1">
        <mxGraphModel dx="992" dy="579" grid="1" gridSize="10" guides="1" tooltips="1" connect="1" arrows="1" fold="1" page="1" pageScale="1" pageWidth="827" pageHeight="1169" math="0" shadow="0">
            <root>
                <mxCell id="0"/>
                <mxCell id="1" parent="0"/>
                <mxCell id="30" value="&lt;h1&gt;Monorepo / Workspace&lt;/h1&gt;&lt;p&gt;Cada módulo é um package, sendo importado quando necessário para só assim ser utlizado&lt;/p&gt;" style="text;html=1;strokeColor=none;fillColor=none;spacing=5;spacingTop=-20;whiteSpace=wrap;overflow=hidden;rounded=0;" vertex="1" parent="1">
                    <mxGeometry x="10" y="10" width="360" height="120" as="geometry"/>
                </mxCell>
                <mxCell id="32" value="* Base: Expo &lt;br&gt;* State Manager: Zustand &lt;br&gt;* Request/Promise Manager: React Query &lt;br&gt;* Style: Tailwind &lt;br&gt;* Validation: Zod / React Hooks Form" style="text;html=1;align=left;verticalAlign=middle;resizable=0;points=[];autosize=1;strokeColor=none;fillColor=none;" vertex="1" parent="1">
                    <mxGeometry x="570" y="10" width="250" height="90" as="geometry"/>
                </mxCell>
                <mxCell id="55" value="" style="group" vertex="1" connectable="0" parent="1">
                    <mxGeometry x="20" y="130" width="690" height="340" as="geometry"/>
                </mxCell>
                <mxCell id="54" value="Fluxo" style="rounded=0;whiteSpace=wrap;html=1;dashed=1;verticalAlign=top;" vertex="1" parent="55">
                    <mxGeometry width="690" height="325" as="geometry"/>
                </mxCell>
                <mxCell id="35" value="App" style="rounded=1;whiteSpace=wrap;html=1;verticalAlign=top;" vertex="1" parent="55">
                    <mxGeometry x="90" y="40" width="340" height="30" as="geometry"/>
                </mxCell>
                <mxCell id="36" value="Router" style="rounded=0;whiteSpace=wrap;html=1;verticalAlign=middle;" vertex="1" parent="55">
                    <mxGeometry x="90" y="110" width="340" height="50" as="geometry"/>
                </mxCell>
                <mxCell id="37" style="edgeStyle=none;html=1;entryX=0.5;entryY=0;entryDx=0;entryDy=0;" edge="1" parent="55" source="35" target="36">
                    <mxGeometry relative="1" as="geometry"/>
                </mxCell>
                <mxCell id="38" value="Auth" style="rounded=1;whiteSpace=wrap;html=1;" vertex="1" parent="55">
                    <mxGeometry x="30" y="240" width="120" height="60" as="geometry"/>
                </mxCell>
                <mxCell id="40" style="edgeStyle=none;html=1;entryX=0.5;entryY=0;entryDx=0;entryDy=0;" edge="1" parent="55" source="36" target="38">
                    <mxGeometry relative="1" as="geometry"/>
                </mxCell>
                <mxCell id="41" value="/auth" style="edgeLabel;html=1;align=center;verticalAlign=middle;resizable=0;points=[];" vertex="1" connectable="0" parent="40">
                    <mxGeometry x="-0.189" relative="1" as="geometry">
                        <mxPoint x="-1" as="offset"/>
                    </mxGeometry>
                </mxCell>
                <mxCell id="39" value="Dashboard" style="rounded=1;whiteSpace=wrap;html=1;" vertex="1" parent="55">
                    <mxGeometry x="200" y="240" width="120" height="60" as="geometry"/>
                </mxCell>
                <mxCell id="42" style="edgeStyle=none;html=1;entryX=0.5;entryY=0;entryDx=0;entryDy=0;" edge="1" parent="55" source="36" target="39">
                    <mxGeometry relative="1" as="geometry"/>
                </mxCell>
                <mxCell id="43" value="/dashboard" style="edgeLabel;html=1;align=center;verticalAlign=middle;resizable=0;points=[];" vertex="1" connectable="0" parent="42">
                    <mxGeometry x="0.0386" relative="1" as="geometry">
                        <mxPoint as="offset"/>
                    </mxGeometry>
                </mxCell>
                <mxCell id="48" value="Module N" style="rounded=1;whiteSpace=wrap;html=1;" vertex="1" parent="55">
                    <mxGeometry x="360" y="240" width="120" height="60" as="geometry"/>
                </mxCell>
                <mxCell id="49" value="/moduleN" style="edgeStyle=none;html=1;entryX=0.5;entryY=0;entryDx=0;entryDy=0;" edge="1" parent="55" source="36" target="48">
                    <mxGeometry relative="1" as="geometry"/>
                </mxCell>
                <mxCell id="50" value="Shared" style="rounded=0;whiteSpace=wrap;html=1;" vertex="1" parent="55">
                    <mxGeometry x="520" y="40" width="70" height="260" as="geometry"/>
                </mxCell>
                <mxCell id="51" value="DS" style="rounded=0;whiteSpace=wrap;html=1;" vertex="1" parent="55">
                    <mxGeometry x="600" y="40" width="70" height="260" as="geometry"/>
                </mxCell>
                <mxCell id="52" value="" style="endArrow=classic;startArrow=classic;html=1;" edge="1" parent="55">
                    <mxGeometry width="50" height="50" relative="1" as="geometry">
                        <mxPoint x="510" y="300" as="sourcePoint"/>
                        <mxPoint x="510" y="40" as="targetPoint"/>
                    </mxGeometry>
                </mxCell>
                <mxCell id="57" value="" style="group" vertex="1" connectable="0" parent="55">
                    <mxGeometry y="350" width="450" height="410" as="geometry"/>
                </mxCell>
                <mxCell id="56" value="Dependências" style="rounded=0;whiteSpace=wrap;html=1;dashed=1;verticalAlign=top;" vertex="1" parent="57">
                    <mxGeometry width="450" height="410" as="geometry"/>
                </mxCell>
                <mxCell id="5" value="@app/router" style="rounded=1;whiteSpace=wrap;html=1;" vertex="1" parent="57">
                    <mxGeometry x="40" y="190" width="120" height="40" as="geometry"/>
                </mxCell>
                <mxCell id="20" style="edgeStyle=none;html=1;exitX=0;exitY=0.75;exitDx=0;exitDy=0;" edge="1" parent="57" source="6">
                    <mxGeometry relative="1" as="geometry">
                        <mxPoint x="160" y="220" as="targetPoint"/>
                    </mxGeometry>
                </mxCell>
                <mxCell id="22" value="Import Types" style="edgeLabel;html=1;align=center;verticalAlign=middle;resizable=0;points=[];" vertex="1" connectable="0" parent="20">
                    <mxGeometry x="0.1693" relative="1" as="geometry">
                        <mxPoint as="offset"/>
                    </mxGeometry>
                </mxCell>
                <mxCell id="6" value="@app/auth" style="rounded=1;whiteSpace=wrap;html=1;" vertex="1" parent="57">
                    <mxGeometry x="294" y="190" width="120" height="40" as="geometry"/>
                </mxCell>
                <mxCell id="12" style="edgeStyle=none;html=1;entryX=0;entryY=0.25;entryDx=0;entryDy=0;exitX=1;exitY=0.25;exitDx=0;exitDy=0;" edge="1" parent="57" source="5" target="6">
                    <mxGeometry relative="1" as="geometry"/>
                </mxCell>
                <mxCell id="15" value="Import Router" style="edgeLabel;html=1;align=center;verticalAlign=middle;resizable=0;points=[];" vertex="1" connectable="0" parent="12">
                    <mxGeometry x="-0.1843" y="-2" relative="1" as="geometry">
                        <mxPoint as="offset"/>
                    </mxGeometry>
                </mxCell>
                <mxCell id="18" style="edgeStyle=none;html=1;entryX=0.75;entryY=1;entryDx=0;entryDy=0;exitX=0.75;exitY=0;exitDx=0;exitDy=0;" edge="1" parent="57" source="7" target="5">
                    <mxGeometry relative="1" as="geometry"/>
                </mxCell>
                <mxCell id="19" value="Import Types" style="edgeLabel;html=1;align=center;verticalAlign=middle;resizable=0;points=[];" vertex="1" connectable="0" parent="18">
                    <mxGeometry x="-0.1738" y="3" relative="1" as="geometry">
                        <mxPoint as="offset"/>
                    </mxGeometry>
                </mxCell>
                <mxCell id="7" value="@app/dashboard" style="rounded=1;whiteSpace=wrap;html=1;" vertex="1" parent="57">
                    <mxGeometry x="40" y="350" width="120" height="40" as="geometry"/>
                </mxCell>
                <mxCell id="11" style="edgeStyle=none;html=1;entryX=0.25;entryY=0;entryDx=0;entryDy=0;exitX=0.25;exitY=1;exitDx=0;exitDy=0;" edge="1" parent="57" source="5" target="7">
                    <mxGeometry relative="1" as="geometry"/>
                </mxCell>
                <mxCell id="16" value="Import Router" style="edgeLabel;html=1;align=center;verticalAlign=middle;resizable=0;points=[];" vertex="1" connectable="0" parent="11">
                    <mxGeometry x="-0.1096" y="-1" relative="1" as="geometry">
                        <mxPoint as="offset"/>
                    </mxGeometry>
                </mxCell>
                <mxCell id="8" value="@app/shared" style="rounded=1;whiteSpace=wrap;html=1;" vertex="1" parent="57">
                    <mxGeometry x="294" y="350" width="120" height="40" as="geometry"/>
                </mxCell>
                <mxCell id="10" style="edgeStyle=none;html=1;entryX=0.5;entryY=0;entryDx=0;entryDy=0;exitX=0.5;exitY=1;exitDx=0;exitDy=0;" edge="1" parent="57" source="6" target="8">
                    <mxGeometry relative="1" as="geometry"/>
                </mxCell>
                <mxCell id="14" value="Import" style="edgeLabel;html=1;align=center;verticalAlign=middle;resizable=0;points=[];" vertex="1" connectable="0" parent="10">
                    <mxGeometry x="-0.065" y="2" relative="1" as="geometry">
                        <mxPoint as="offset"/>
                    </mxGeometry>
                </mxCell>
                <mxCell id="9" style="edgeStyle=none;html=1;entryX=0;entryY=0.5;entryDx=0;entryDy=0;" edge="1" parent="57" source="7" target="8">
                    <mxGeometry relative="1" as="geometry"/>
                </mxCell>
                <mxCell id="23" value="Import" style="edgeLabel;html=1;align=center;verticalAlign=middle;resizable=0;points=[];" vertex="1" connectable="0" parent="9">
                    <mxGeometry x="0.0844" y="1" relative="1" as="geometry">
                        <mxPoint as="offset"/>
                    </mxGeometry>
                </mxCell>
                <mxCell id="25" style="edgeStyle=none;html=1;entryX=0.5;entryY=0;entryDx=0;entryDy=0;" edge="1" parent="57" source="24" target="5">
                    <mxGeometry relative="1" as="geometry"/>
                </mxCell>
                <mxCell id="28" value="Import Router" style="edgeLabel;html=1;align=center;verticalAlign=middle;resizable=0;points=[];" vertex="1" connectable="0" parent="25">
                    <mxGeometry x="0.0259" y="-2" relative="1" as="geometry">
                        <mxPoint x="-1" as="offset"/>
                    </mxGeometry>
                </mxCell>
                <mxCell id="26" style="edgeStyle=none;html=1;entryX=0.25;entryY=0;entryDx=0;entryDy=0;" edge="1" parent="57" source="24" target="8">
                    <mxGeometry relative="1" as="geometry"/>
                </mxCell>
                <mxCell id="27" value="Import Configs" style="edgeLabel;html=1;align=center;verticalAlign=middle;resizable=0;points=[];" vertex="1" connectable="0" parent="26">
                    <mxGeometry x="-0.7129" relative="1" as="geometry">
                        <mxPoint as="offset"/>
                    </mxGeometry>
                </mxCell>
                <mxCell id="24" value="Root/App&lt;br&gt;deps nativas" style="rounded=1;whiteSpace=wrap;html=1;" vertex="1" parent="57">
                    <mxGeometry x="150" y="40" width="120" height="60" as="geometry"/>
                </mxCell>
            </root>
        </mxGraphModel>
    </diagram>
</mxfile>